<svg xmlns="http://www.w3.org/2000/svg" id="Layer_1" viewBox="9.53 8.02 393.42 164.45">
  <defs>
    <style>
      .cls-1 {
        fill: #e1e2ed;
      }

      .cls-2 {
        isolation: isolate;
      }

      .cls-3 {
        fill: #b4aed6;
      }

      .cls-4 {
        fill: #8f8ac2;
      }

      .cls-5 {
        fill: #f5f3f8;
      }
    </style>
  </defs>
  <g class="cls-2">
    <path class="cls-5" d="M335.6,50.48c1.09,1.09,1.63,2.52,1.63,4.3s-.54,3.21-1.63,4.28c-1.09,1.09-2.52,1.63-4.28,1.63s-3.22-.54-4.28-1.63c-1.06-1.06-1.61-2.5-1.61-4.28s.54-3.22,1.61-4.3c1.06-1.06,2.5-1.61,4.28-1.61s3.19.54,4.28,1.61ZM331.32,59.63c1.48,0,2.65-.42,3.49-1.26.82-.84,1.24-2.03,1.24-3.59,0-3.07-1.76-4.85-4.72-4.85-1.48,0-2.65.42-3.46,1.26-.82.84-1.24,2.03-1.24,3.59s.42,2.75,1.24,3.59c.82.84,1.98,1.26,3.46,1.26ZM332.41,55.33c.22.45.54.96.99,1.56.07.12.12.25.12.35,0,.3-.35.52-.57.52-.17,0-.35-.1-.49-.3-.42-.57-.82-1.21-1.19-1.95h-.89v1.61c0,.4-.2.59-.57.59s-.57-.2-.57-.59v-4.85c0-.4.2-.59.57-.59h1.41c1.58,0,2.38.64,2.38,1.93,0,.89-.4,1.46-1.19,1.73ZM331.22,54.58c.87,0,1.29-.32,1.29-.99s-.42-.99-1.29-.99h-.84v1.98h.84Z"/>
  </g>
  <g>
    <g>
      <path class="cls-5" d="M241.56,69.09v14.4c0,2.75-1.32,4.13-3.9,4.13s-3.96-1.38-3.96-4.13v-13.83c0-3.84-1.72-5.79-5.16-5.79-1.95,0-3.73.46-5.34,1.38.46,1.55.69,3.39.69,5.39v12.85c0,2.58-1.32,4.13-3.79,4.13s-3.9-1.38-3.9-4.13v-13.83c0-3.9-1.55-5.79-5.16-5.79-1.61,0-3.16.34-4.65,1.03v18.59c0,2.75-1.32,4.13-3.9,4.13s-3.96-1.38-3.96-4.13v-19.85c0-2.64,1.26-4.3,3.73-5.05,3.04-.86,6.14-1.26,9.18-1.26,3.39,0,6.08.8,8.09,2.35,2.98-1.55,6.08-2.35,9.35-2.35,8.09,0,12.68,4.25,12.68,11.76Z"/>
      <path class="cls-5" d="M269.67,74.71h-14.11c.63,4.42,3.33,6.66,8.09,6.66,1.09,0,2.35-.12,3.73-.4,1.38-.29,2.12-.4,2.29-.4,2.01,0,2.98,1.38,2.98,3.38,0,1.66-1.03,2.7-3.1,3.16-2.29.63-4.53.92-6.77.92-4.65,0-8.43-1.38-11.25-4.19-2.87-2.75-4.3-6.48-4.3-11.19s1.32-8.26,3.96-11.07c2.64-2.81,6.08-4.25,10.27-4.25,3.73,0,6.77,1.21,9.07,3.61,2.24,2.41,3.38,5.45,3.38,9.12,0,3.1-1.43,4.65-4.25,4.65ZM266.34,69.89v-.69c0-3.27-1.84-5.57-4.88-5.57-3.38,0-5.51,2.29-6.02,6.25h10.9Z"/>
      <path class="cls-5" d="M279.94,83.49v-19.97c0-2.64,1.09-4.25,3.21-4.82,2.93-.92,5.85-1.38,8.78-1.38,3.27,0,4.93,1.03,4.93,3.1,0,2.29-1.26,3.56-3.56,3.5-2.24-.12-4.07.17-5.45.92v18.65c0,2.58-1.43,4.13-3.96,4.13s-3.96-1.38-3.96-4.13Z"/>
      <path class="cls-5" d="M299.73,79.01c0-5.57,4.59-9.01,11.53-9.06,1.49,0,3.21.17,5.11.46v-1.38c0-3.44-2.01-5.16-6.02-5.16-1.03,0-2.18.12-3.38.29-1.26.23-2.01.34-2.18.34-2.01,0-2.98-1.38-2.98-3.39,0-1.61.98-2.64,2.98-3.04,2.24-.52,4.47-.75,6.66-.75,8.32,0,12.62,4.36,12.62,12.22v12.33c0,2.58-.92,4.07-3.27,4.82-2.29.86-5.39,1.32-9.24,1.32-7.57,0-11.82-3.67-11.82-9.01ZM316.37,81.53v-6.14c-1.43-.29-2.75-.46-4.07-.46-3.16,0-4.71,1.26-4.71,3.73s1.61,3.67,4.76,3.67c1.66,0,3.04-.29,4.02-.8Z"/>
      <path class="cls-5" d="M241.79,122.08v13.02c0,3.27-1.72,5.11-4.88,5.11s-4.88-1.84-4.88-5.11v-12.33c0-3.67-1.21-5.05-4.19-5.05-1.43,0-2.75.29-3.9.86.4,1.66.63,3.56.63,5.57v10.96c0,3.27-1.66,5.11-4.7,5.11s-4.76-1.84-4.76-5.11v-12.33c0-3.61-1.26-5.05-4.25-5.05-.98,0-2.07.17-3.21.57v16.81c0,3.27-1.72,5.11-4.88,5.11s-4.88-1.84-4.88-5.11v-18.53c0-3.16,1.43-5.05,4.25-5.79,2.93-.75,5.97-1.09,9.24-1.09s6.02.69,8.03,2.12c3.16-1.43,6.14-2.12,8.95-2.12,8.49,0,13.42,4.36,13.42,12.39Z"/>
      <path class="cls-5" d="M261.29,140.61c-4.53,0-8.15-1.43-10.84-4.25-2.7-2.81-4.07-6.54-4.07-11.24s1.38-8.43,4.07-11.25c2.7-2.81,6.31-4.19,10.84-4.19s8.15,1.38,10.84,4.19c2.7,2.81,4.02,6.6,4.02,11.25s-1.32,8.43-4.02,11.24c-2.7,2.81-6.31,4.25-10.84,4.25ZM261.29,132.58c1.55,0,2.81-.69,3.67-2.01.86-1.32,1.26-3.1,1.26-5.45,0-4.65-1.89-7.4-4.93-7.4s-4.99,2.75-4.99,7.4c0,2.35.46,4.13,1.32,5.45.86,1.32,2.12,2.01,3.67,2.01Z"/>
      <path class="cls-5" d="M285.91,140.21c-1.55,0-2.75-.46-3.61-1.32-.86-.86-1.26-2.12-1.26-3.79v-18.53c0-3.16,1.43-5.05,4.25-5.79,3.1-.75,6.14-1.09,9.12-1.09,8.89,0,14,4.36,14,12.39v13.02c0,3.27-1.72,5.11-4.88,5.11s-4.88-1.84-4.88-5.11v-12.33c0-3.39-1.43-5.05-4.36-5.05-1.26,0-2.41.17-3.5.57v16.81c0,1.66-.4,2.93-1.26,3.79-.86.86-2.07,1.32-3.61,1.32Z"/>
      <path class="cls-5" d="M319.3,107.56c-1.72,0-3.04-.46-4.02-1.43-.98-.98-1.49-2.24-1.49-3.84s.52-2.87,1.49-3.84c.97-.92,2.29-1.38,4.02-1.38s3.04.46,4.02,1.38c.98.98,1.43,2.24,1.43,3.84s-.46,2.87-1.43,3.84c-.97.98-2.29,1.43-4.02,1.43ZM319.3,140.21c-1.55,0-2.75-.46-3.61-1.32-.86-.86-1.26-2.12-1.26-3.79v-19.91c0-3.27,1.72-5.11,4.88-5.11s4.88,1.84,4.88,5.11v19.91c0,1.66-.4,2.93-1.26,3.79-.86.86-2.07,1.32-3.61,1.32Z"/>
      <path class="cls-5" d="M342.82,140.61c-7.46,0-11.19-4.13-11.19-12.33v-10.21c-2.7-.17-4.02-1.43-4.02-3.84s1.32-3.61,4.02-3.79v-1.61c0-3.27,1.72-5.11,4.88-5.11s4.88,1.84,4.88,5.11v1.55h1.15c3.21,0,4.82,1.26,4.82,3.84s-1.61,3.9-4.82,3.9h-1.15v10.04c0,2.81,1.03,4.3,3.04,4.42.17,0,.29,0,.4.06,2.18.23,3.33,1.43,3.5,3.61.23,2.93-1.89,4.36-5.51,4.36Z"/>
      <path class="cls-5" d="M365.43,140.61c-4.53,0-8.15-1.43-10.84-4.25-2.7-2.81-4.07-6.54-4.07-11.24s1.38-8.43,4.07-11.25c2.7-2.81,6.31-4.19,10.84-4.19s8.15,1.38,10.84,4.19c2.7,2.81,4.02,6.6,4.02,11.25s-1.32,8.43-4.02,11.24c-2.7,2.81-6.31,4.25-10.84,4.25ZM365.43,132.58c1.55,0,2.81-.69,3.67-2.01.86-1.32,1.26-3.1,1.26-5.45,0-4.65-1.89-7.4-4.93-7.4s-4.99,2.75-4.99,7.4c0,2.35.46,4.13,1.32,5.45.86,1.32,2.12,2.01,3.67,2.01Z"/>
      <path class="cls-5" d="M390.04,140.21c-1.55,0-2.75-.46-3.61-1.32s-1.26-2.12-1.26-3.79v-18.7c0-3.16,1.26-5.05,3.84-5.68,2.87-.69,5.62-1.03,8.2-1.03,3.5,0,5.74,1.32,5.74,3.79,0,2.75-1.43,4.48-4.02,4.3-1.78-.12-3.1.06-4.02.46v16.87c0,1.66-.4,2.93-1.26,3.79s-2.07,1.32-3.61,1.32Z"/>
    </g>
    <path class="cls-3" d="M124.37,139.64c-3.8-3.24-9.08-4.03-13.71-2.16-5.85,2.35-12.23,3.64-18.9,3.64s-13.36-1.35-19.32-3.81c-4.65-1.92-9.97-1.14-13.8,2.13l-4.03,3.44c-7.36,6.28-5.78,18.13,3.02,22.16,10.4,4.77,21.96,7.43,34.13,7.43s23.34-2.57,33.6-7.19c8.85-3.98,10.45-15.88,3.07-22.18l-4.05-3.46Z"/>
    <path class="cls-3" d="M129.97,38.26c7.38-6.29,5.82-18.09-2.92-22.27-10.7-5.11-22.67-7.97-35.29-7.97s-24.84,2.92-35.62,8.13c-8.58,4.14-10.31,15.61-3.24,22.01l3.75,3.4c3.93,3.56,9.58,4.37,14.42,2.21,6.33-2.83,13.33-4.4,20.7-4.4s14.03,1.5,20.23,4.2c4.74,2.06,10.22,1.32,14.15-2.03l3.83-3.27Z"/>
    <path class="cls-1" d="M40.87,90.24c0-14.98,6.51-28.46,16.84-37.78l-23.28-21.1c-15.35,14.95-24.9,35.82-24.9,58.88,0,18.65,6.24,35.86,16.75,49.67,4.68,6.15,13.57,7.08,19.44,2.07l3.35-2.86c5.37-4.58,6.37-12.6,2.1-18.23-6.46-8.53-10.3-19.15-10.3-30.65Z"/>
    <path class="cls-1" d="M148.57,30.87l-23.99,20.46s-.02.06,0,.08c11.03,9.34,18.05,23.28,18.05,38.83,0,11.68-3.96,22.45-10.6,31.04-4.3,5.56-3.36,13.55,1.99,18.11l3.61,3.08c5.78,4.93,14.5,4.01,19.16-2,10.77-13.9,17.18-31.34,17.18-50.24,0-23.32-9.76-44.4-25.4-59.38Z"/>
    <path class="cls-5" d="M84.94,101.55L30.74,32.49c-1.94-1.48-.17-4.52,2.07-3.56l61.83,56.51-9.7,16.11h0Z"/>
    <path class="cls-5" d="M90.18,80.93L166.93,13.36c2.25-2.2,5.67.92,3.68,3.36l-70.39,81.81-10.04-17.61Z"/>
    <circle class="cls-4" cx="91.75" cy="91.75" r="12.04"/>
  </g>
</svg>